<?xml version="1.0" encoding="UTF-8" standalone="no" ?>
<!DOCTYPE svg PUBLIC "-//W3C//DTD SVG 1.1//EN" "http://www.w3.org/Graphics/SVG/1.1/DTD/svg11.dtd">
<svg xmlns="http://www.w3.org/2000/svg" xmlns:xlink="http://www.w3.org/1999/xlink" version="1.1" width="1080" height="1080" viewBox="0 0 1080 1080" xml:space="preserve">
<desc>Created with Fabric.js 5.2.4</desc>
<defs>
</defs>
<g transform="matrix(1 0 0 1 540 540)" id="23ef5495-9258-4f86-bd7f-cca270f52e6a"  >
<rect style="stroke: none; stroke-width: 1; stroke-dasharray: none; stroke-linecap: butt; stroke-dashoffset: 0; stroke-linejoin: miter; stroke-miterlimit: 4; fill: rgb(255,255,255); fill-rule: nonzero; opacity: 1; visibility: hidden;" vector-effect="non-scaling-stroke"  x="-540" y="-540" rx="0" ry="0" width="1080" height="1080" />
</g>
<g transform="matrix(1 0 0 1 540 540)" id="b7ffebf4-97ae-418c-8e75-f79f88d63968"  >
</g>
<g transform="matrix(1 0 0 1 540 540)"  >
<g style="" vector-effect="non-scaling-stroke"   >
		<g transform="matrix(1.33 0 0 -1.33 6.08 22.14)" id="path14"  >
<path style="stroke: none; stroke-width: 1; stroke-dasharray: none; stroke-linecap: butt; stroke-dashoffset: 0; stroke-linejoin: miter; stroke-miterlimit: 4; fill: rgb(0,0,0); fill-rule: nonzero; opacity: 1;" vector-effect="non-scaling-stroke"  transform=" translate(-19.68, 29.56)" d="M 0 0 L 39.53 0 L 39.53 -14.653 L 26.581 -14.653 L 26.581 -59.125 L 12.098 -59.125 L 12.098 -14.823999999999998 L -0.17 -14.823999999999998 Z" stroke-linecap="round" />
</g>
		<g transform="matrix(1.33 0 0 -1.33 123.08 22.14)" id="path18"  >
<path style="stroke: none; stroke-width: 1; stroke-dasharray: none; stroke-linecap: butt; stroke-dashoffset: 0; stroke-linejoin: miter; stroke-miterlimit: 4; fill: rgb(0,0,0); fill-rule: nonzero; opacity: 1;" vector-effect="non-scaling-stroke"  transform=" translate(-19.68, 29.56)" d="M 0 0 L 39.53 0 L 39.53 -14.653 L 26.58 -14.653 L 26.58 -59.125 L 12.098 -59.125 L 12.098 -14.823999999999998 L -0.171 -14.823999999999998 Z" stroke-linecap="round" />
</g>
		<g transform="matrix(1.33 0 0 -1.33 181.24 22.14)" id="path22"  >
<path style="stroke: none; stroke-width: 1; stroke-dasharray: none; stroke-linecap: butt; stroke-dashoffset: 0; stroke-linejoin: miter; stroke-miterlimit: 4; fill: rgb(0,0,0); fill-rule: nonzero; opacity: 1;" vector-effect="non-scaling-stroke"  transform=" translate(-19.68, 29.56)" d="M 0 0 L 39.53 0 L 39.53 -14.653 L 26.581 -14.653 L 26.581 -59.125 L 12.098 -59.125 L 12.098 -14.823999999999998 L -0.17 -14.823999999999998 Z" stroke-linecap="round" />
</g>
		<g transform="matrix(1.33 0 0 -1.33 64.34 22.08)" id="path26"  >
<path style="stroke: none; stroke-width: 1; stroke-dasharray: none; stroke-linecap: butt; stroke-dashoffset: 0; stroke-linejoin: miter; stroke-miterlimit: 4; fill: rgb(0,0,0); fill-rule: nonzero; opacity: 1;" vector-effect="non-scaling-stroke"  transform=" translate(-4.42, -7.89)" d="M 0 0 L 4.245 17.295 L 8.175 0 Z M 15.001 37.315 L -6.138 37.315 L -18.586 -21.54 L -3.9289999999999985 -21.54 L -1.3759999999999986 -11.674 L 10.383000000000003 -11.674 L 12.764000000000003 -21.54 L 27.421000000000003 -21.54 z" stroke-linecap="round" />
</g>
		<g transform="matrix(1.33 0 0 -1.33 10.72 121.82)" id="path30"  >
<path style="stroke: none; stroke-width: 1; stroke-dasharray: none; stroke-linecap: butt; stroke-dashoffset: 0; stroke-linejoin: miter; stroke-miterlimit: 4; fill: rgb(0,0,0); fill-rule: nonzero; opacity: 1;" vector-effect="non-scaling-stroke"  transform=" translate(-4.42, -7.89)" d="M 0 0 L 4.244 17.295 L 8.174 0 Z M 15 37.315 L -6.139 37.315 L -18.586 -21.54 L -3.93 -21.54 L -1.3770000000000002 -11.674 L 10.383 -11.674 L 12.762999999999998 -21.54 L 27.42 -21.54 Z" stroke-linecap="round" />
</g>
		<g transform="matrix(1.33 0 0 -1.33 216.33 121.82)" id="path34"  >
<path style="stroke: none; stroke-width: 1; stroke-dasharray: none; stroke-linecap: butt; stroke-dashoffset: 0; stroke-linejoin: miter; stroke-miterlimit: 4; fill: rgb(0,0,0); fill-rule: nonzero; opacity: 1;" vector-effect="non-scaling-stroke"  transform=" translate(-4.42, -7.89)" d="M 0 0 L 4.245 17.295 L 8.175 0 Z M 15.001 37.315 L -6.138 37.315 L -18.586 -21.54 L -3.93 -21.54 L -1.3770000000000002 -11.674 L 10.383 -11.674 L 12.764 -21.54 L 27.42 -21.54 Z" stroke-linecap="round" />
</g>
		<g transform="matrix(1.33 0 0 -1.33 243.89 22.29)" id="path38"  >
<path style="stroke: none; stroke-width: 1; stroke-dasharray: none; stroke-linecap: butt; stroke-dashoffset: 0; stroke-linejoin: miter; stroke-miterlimit: 4; fill: rgb(0,0,0); fill-rule: nonzero; opacity: 1;" vector-effect="non-scaling-stroke"  transform=" translate(-5.56, -14.96)" d="M 0 0 L -0.172 29.916 L 11.129 29.916 L 11.301 0 Z M 16.55 44.458 L -5.736 44.458 L -15.172999999999998 35.021 L -15.172999999999998 -4.7890000000000015 L -5.420999999999998 -14.542000000000002 L 16.836000000000006 -14.542000000000002 L 26.302000000000007 -5.076000000000002 L 26.302000000000007 34.705999999999996 z" stroke-linecap="round" />
</g>
		<g transform="matrix(1.33 0 0 -1.33 311.82 22.29)" id="path42"  >
<path style="stroke: none; stroke-width: 1; stroke-dasharray: none; stroke-linecap: butt; stroke-dashoffset: 0; stroke-linejoin: miter; stroke-miterlimit: 4; fill: rgb(0,0,0); fill-rule: nonzero; opacity: 1;" vector-effect="non-scaling-stroke"  transform=" translate(-5.56, -14.96)" d="M 0 0 L -0.172 29.916 L 11.129 29.916 L 11.301 0 Z M 16.55 44.458 L -5.736 44.458 L -15.172999999999998 35.021 L -15.172999999999998 -4.7890000000000015 L -5.420999999999998 -14.542000000000002 L 16.836000000000006 -14.542000000000002 L 26.302000000000007 -5.076000000000002 L 26.302000000000007 34.705999999999996 z" stroke-linecap="round" />
</g>
		<g transform="matrix(1.33 0 0 -1.33 79.64 121.42)" id="path44"  >
<path style="stroke: none; stroke-width: 1; stroke-dasharray: none; stroke-linecap: butt; stroke-dashoffset: 0; stroke-linejoin: miter; stroke-miterlimit: 4; fill: rgb(0,0,0); fill-rule: nonzero; opacity: 1;" vector-effect="non-scaling-stroke"  transform=" translate(-357.37, -329.88)" d="M 363.618 314.635 L 351.343 314.635 L 351.343 344.522 L 363.618 344.522 z M 369.068 359.265 L 336.543 359.265 L 336.543 300.495 L 369.068 300.495 L 378.18899999999996 309.616 L 378.18899999999996 350.144 z" stroke-linecap="round" />
</g>
		<g transform="matrix(1.33 0 0 -1.33 149.61 121.42)" id="path46"  >
<path style="stroke: none; stroke-width: 1; stroke-dasharray: none; stroke-linecap: butt; stroke-dashoffset: 0; stroke-linejoin: miter; stroke-miterlimit: 4; fill: rgb(0,0,0); fill-rule: nonzero; opacity: 1;" vector-effect="non-scaling-stroke"  transform=" translate(-409.85, -329.88)" d="M 416.099 314.635 L 403.823 314.635 L 403.823 344.522 L 416.099 344.522 z M 421.548 359.265 L 389.022 359.265 L 389.022 300.495 L 421.548 300.495 L 430.669 309.616 L 430.669 350.144 z" stroke-linecap="round" />
</g>
		<g transform="matrix(1.33 0 0 -1.33 -88.01 40.72)" id="path58" clip-path="url(#CLIPPATH_3)"  >
<clipPath id="CLIPPATH_3" >
	<path transform="matrix(1 0 0 1 66.01 30.54) translate(-297.64, -420.94)" id="path52" d="M 0 841.89 L 595.276 841.89 L 595.276 0 L 0 0 Z" stroke-linecap="round" />
</clipPath>
<path style="stroke: none; stroke-width: 1; stroke-dasharray: none; stroke-linecap: butt; stroke-dashoffset: 0; stroke-linejoin: miter; stroke-miterlimit: 4; fill: rgb(0,0,0); fill-rule: nonzero; opacity: 1;" vector-effect="non-scaling-stroke"  transform=" translate(-30.64, 92.65)" d="M 0 0 L 0 -133.457 C 0 -133.457 2.182 -147.011 3.876 -146.875 C 4.287 -146.843 8.052 -147.973 9.808 -140.371 C 11.267 -134.056 14.355 -125.44800000000001 14.355 -123.233 C 14.611 -101.765 10.649000000000001 -96.82300000000001 14.483 -96.01400000000001 C 18.445 -95.46000000000001 16.528 -101.89300000000001 20.818 -122.48600000000002 C 20.818 -122.48600000000002 21.213 -126.68400000000003 18.658 -133.67000000000002 L 15.591000000000001 -145.42700000000002 C 15.591000000000001 -145.42700000000002 15.690000000000001 -147.88100000000003 15.889000000000001 -150.58100000000002 C 16.102 -153.478 18.189 -164.85200000000003 17.039 -167.705 C 17.039 -167.705 8.690000000000001 -183.424 8.690000000000001 -173.79700000000003 L 8.690000000000001 -157.60900000000004 C 8.690000000000001 -157.60900000000004 9.116000000000001 -153.77500000000003 4.771000000000001 -151.39100000000005 C 4.771000000000001 -151.39100000000005 3.1140000000000008 -149.56900000000005 1.8750000000000009 -166.30000000000004 C 1.576000000000001 -170.32500000000005 -0.2759999999999989 -175.79600000000005 0.17000000000000082 -179.90900000000005 C 1.0650000000000008 -188.15100000000004 2.504000000000001 -194.06300000000005 1.9590000000000007 -196.97000000000006 C 1.5760000000000007 -199.01400000000007 8.413 -200.93100000000007 9.031 -200.71800000000005 C 9.902000000000001 -200.41700000000006 23.55 -188.29700000000005 25.473 -186.32000000000005 C 26.24 -185.53200000000004 26.398 -165.46900000000005 28.711 -163.40200000000004 C 30.904 -161.44300000000004 42.171 -150.13500000000005 42.171 -149.09000000000003 C 42.171 -148.33000000000004 40.935 -143.78600000000003 39.85 -139.39900000000003 C 38.775 -135.05400000000003 37.844 -130.86500000000004 39.275 -130.00700000000003 C 42.528999999999996 -128.05400000000003 58.443 -113.43700000000004 58.443 -112.67000000000003 C 58.443 -111.60400000000003 49.711 -99.20900000000003 49.711 -95.63100000000003 C 49.711 -92.05300000000003 62.617999999999995 -62.44700000000003 61.17 -60.99900000000003 C 59.679 -59.50800000000003 56.143 -64.66200000000003 54.269000000000005 -67.13300000000004 C 52.395 -69.60400000000004 43.909000000000006 -83.02300000000004 42.342000000000006 -81.23200000000004 C 39.95700000000001 -78.50700000000005 34.95100000000001 -70.30700000000004 35.867000000000004 -69.39100000000005 C 37.699000000000005 -67.56000000000004 56.143 -47.709000000000046 58.784000000000006 -47.709000000000046 C 61.425000000000004 -47.709000000000046 62.02100000000001 -46.60200000000005 58.699000000000005 -43.53400000000005 C 55.376000000000005 -40.46700000000005 47.45400000000001 -36.03700000000005 47.45400000000001 -33.822000000000045 C 47.45400000000001 -31.607000000000046 49.41300000000001 -34.58900000000005 50.77600000000001 -28.881000000000046 C 52.13900000000001 -23.173000000000044 58.56700000000001 -1.1070000000000455 57.16600000000001 -1.1070000000000455 C 52.81800000000001 -1.1070000000000455 44.86100000000001 -2.435000000000046 41.23400000000001 1.1929999999999543 C 38.892 3.536 20.512 15.42 18.828 15.42 C 15.315 15.42 9.287 15.761 7.667 12.609 C 6.049 9.457 0 2.982 0 0" stroke-linecap="round" />
</g>
		<g transform="matrix(1.33 0 0 -1.33 10.46 -113.4)" id="path62" clip-path="url(#CLIPPATH_4)"  >
<clipPath id="CLIPPATH_4" >
	<path transform="matrix(1 0 0 1 -7.85 -85.05) translate(-297.64, -420.94)" id="path52" d="M 0 841.89 L 595.276 841.89 L 595.276 0 L 0 0 Z" stroke-linecap="round" />
</clipPath>
<path style="stroke: none; stroke-width: 1; stroke-dasharray: none; stroke-linecap: butt; stroke-dashoffset: 0; stroke-linejoin: miter; stroke-miterlimit: 4; fill: rgb(0,0,0); fill-rule: nonzero; opacity: 1;" vector-effect="non-scaling-stroke"  transform=" translate(-41.38, -24.42)" d="M 0 0 L -7.244 -28.242 C -7.364 -28.71 -6.999 -29.163 -6.516 -29.145 L 48.737 -27.076999999999998 C 49.183 -27.06 49.608000000000004 -26.891 49.942 -26.596999999999998 L 88.755 7.434 C 89.682 8.247 90.149 9.452 90.005 10.676 C 88.672 21.91 81.85 77.994 78.47699999999999 77.994 C 75.14299999999999 77.994 72.41499999999999 32.504 71.853 22.442 C 71.783 21.204 71.112 20.1 70.05499999999999 19.451999999999998 L 42.524 2.597 L 0.491 0.402 C 0.257 0.39 0.058 0.227 0 0" stroke-linecap="round" />
</g>
		<g transform="matrix(1.33 0 0 -1.33 -176.13 40.72)" id="path66" clip-path="url(#CLIPPATH_5)"  >
<clipPath id="CLIPPATH_5" >
	<path transform="matrix(1 0 0 1 132.1 30.54) translate(-297.64, -420.94)" id="path52" d="M 0 841.89 L 595.276 841.89 L 595.276 0 L 0 0 Z" stroke-linecap="round" />
</clipPath>
<path style="stroke: none; stroke-width: 1; stroke-dasharray: none; stroke-linecap: butt; stroke-dashoffset: 0; stroke-linejoin: miter; stroke-miterlimit: 4; fill: rgb(0,0,0); fill-rule: nonzero; opacity: 1;" vector-effect="non-scaling-stroke"  transform=" translate(30.64, 92.65)" d="M 0 0 L 0 -133.457 C 0 -133.457 -2.182 -147.011 -3.876 -146.875 C -4.287 -146.843 -8.052 -147.973 -9.808 -140.371 C -11.267 -134.056 -14.355 -125.44800000000001 -14.355 -123.233 C -14.611 -101.765 -10.649000000000001 -96.82300000000001 -14.483 -96.01400000000001 C -18.445 -95.46000000000001 -16.528 -101.89300000000001 -20.818 -122.48600000000002 C -20.818 -122.48600000000002 -21.213 -126.68400000000003 -18.658 -133.67000000000002 L -15.591000000000001 -145.42700000000002 C -15.591000000000001 -145.42700000000002 -15.690000000000001 -147.88100000000003 -15.889000000000001 -150.58100000000002 C -16.102 -153.478 -18.189 -164.85200000000003 -17.039 -167.705 C -17.039 -167.705 -8.690000000000001 -183.424 -8.690000000000001 -173.79700000000003 L -8.690000000000001 -157.60900000000004 C -8.690000000000001 -157.60900000000004 -9.116000000000001 -153.77500000000003 -4.771000000000001 -151.39100000000005 C -4.771000000000001 -151.39100000000005 -3.1140000000000008 -149.56900000000005 -1.8750000000000009 -166.30000000000004 C -1.576000000000001 -170.32500000000005 0.2759999999999989 -175.79600000000005 -0.17000000000000082 -179.90900000000005 C -1.0650000000000008 -188.15100000000004 -2.504000000000001 -194.06300000000005 -1.9590000000000007 -196.97000000000006 C -1.5760000000000007 -199.01400000000007 -8.413 -200.93100000000007 -9.031 -200.71800000000005 C -9.902000000000001 -200.41700000000006 -23.55 -188.29700000000005 -25.473 -186.32000000000005 C -26.24 -185.53200000000004 -26.398 -165.46900000000005 -28.711 -163.40200000000004 C -30.904 -161.44300000000004 -42.171 -150.13500000000005 -42.171 -149.09000000000003 C -42.171 -148.33000000000004 -40.935 -143.78600000000003 -39.85 -139.39900000000003 C -38.775 -135.05400000000003 -37.844 -130.86500000000004 -39.275 -130.00700000000003 C -42.528999999999996 -128.05400000000003 -58.443 -113.43700000000004 -58.443 -112.67000000000003 C -58.443 -111.60400000000003 -49.711 -99.20900000000003 -49.711 -95.63100000000003 C -49.711 -92.05300000000003 -62.617999999999995 -62.44700000000003 -61.17 -60.99900000000003 C -59.679 -59.50800000000003 -56.143 -64.66200000000003 -54.269000000000005 -67.13300000000004 C -52.395 -69.60400000000004 -43.909000000000006 -83.02300000000004 -42.342000000000006 -81.23200000000004 C -39.95700000000001 -78.50700000000005 -34.95100000000001 -70.30700000000004 -35.867000000000004 -69.39100000000005 C -37.699000000000005 -67.56000000000004 -56.143 -47.709000000000046 -58.784000000000006 -47.709000000000046 C -61.425000000000004 -47.709000000000046 -62.02100000000001 -46.60200000000005 -58.699000000000005 -43.53400000000005 C -55.376000000000005 -40.46700000000005 -47.45400000000001 -36.03700000000005 -47.45400000000001 -33.822000000000045 C -47.45400000000001 -31.607000000000046 -49.41300000000001 -34.58900000000005 -50.77600000000001 -28.881000000000046 C -52.13900000000001 -23.173000000000044 -58.56700000000001 -1.1070000000000455 -57.16600000000001 -1.1070000000000455 C -52.81800000000001 -1.1070000000000455 -44.86100000000001 -2.435000000000046 -41.23400000000001 1.1929999999999543 C -38.89200000000001 3.5359999999999543 -20.512000000000008 15.419999999999956 -18.82800000000001 15.419999999999956 C -15.31500000000001 15.419999999999956 -9.28700000000001 15.760999999999955 -7.6670000000000105 12.608999999999956 C -6.049 9.457 0 2.982 0 0" stroke-linecap="round" />
</g>
		<g transform="matrix(1.33 0 0 -1.33 -274.6 -113.4)" id="path70" clip-path="url(#CLIPPATH_6)"  >
<clipPath id="CLIPPATH_6" >
	<path transform="matrix(1 0 0 1 205.95 -85.05) translate(-297.64, -420.94)" id="path52" d="M 0 841.89 L 595.276 841.89 L 595.276 0 L 0 0 Z" stroke-linecap="round" />
</clipPath>
<path style="stroke: none; stroke-width: 1; stroke-dasharray: none; stroke-linecap: butt; stroke-dashoffset: 0; stroke-linejoin: miter; stroke-miterlimit: 4; fill: rgb(0,0,0); fill-rule: nonzero; opacity: 1;" vector-effect="non-scaling-stroke"  transform=" translate(41.38, -24.42)" d="M 0 0 L 7.244 -28.242 C 7.364 -28.71 6.999 -29.163 6.516 -29.145 L -48.738 -27.076999999999998 C -49.183 -27.06 -49.608 -26.891 -49.943 -26.596999999999998 L -88.754 7.434 C -89.68100000000001 8.247 -90.15 9.452 -90.00500000000001 10.676 C -88.67200000000001 21.91 -81.85000000000001 77.994 -78.477 77.994 C -75.143 77.994 -72.415 32.504 -71.85300000000001 22.442 C -71.78300000000002 21.204 -71.11200000000001 20.1 -70.055 19.451999999999998 L -42.524 2.597 L -0.491 0.402 C -0.257 0.39 -0.058 0.227 0 0" stroke-linecap="round" />
</g>
</g>
</g>
</svg>